<svg xmlns="http://www.w3.org/2000/svg" viewBox="0 0 100 36" width="100" height="36">
	<path id="Layer" fill-rule="evenodd" class="shp0" d="M99.74 19.83C99.84 19.99 99.92 20.16 99.97 20.33C100.02 20.51 100.05 20.69 100.06 20.87C100.07 21.06 100.05 21.24 100.01 21.42C99.92 22.8 99.82 24.18 99.7 25.56C99.7 25.61 99.7 25.66 99.69 25.71C99.68 25.76 99.66 25.81 99.64 25.86C99.62 25.91 99.6 25.95 99.57 25.99C99.54 26.04 99.51 26.07 99.47 26.11L97.72 26.84C96.8 27.4 92.43 27.91 85.72 28.31C85.58 26.33 84.67 24.49 83.2 23.17C81.72 21.85 79.79 21.15 77.81 21.23C75.83 21.3 73.96 22.14 72.59 23.57C71.22 25 70.45 26.91 70.46 28.89C64.58 29.03 58.05 29.11 51.17 29.11C42.63 29.11 34.63 28.98 27.74 28.77C27.71 26.83 26.95 24.97 25.6 23.57C24.25 22.17 22.42 21.34 20.48 21.25C18.54 21.15 16.64 21.79 15.16 23.05C13.68 24.31 12.73 26.08 12.51 28.01C8.37 27.69 5.63 27.3 4.78 26.89L4.67 26.89C4.2 26.86 3.73 26.78 3.28 26.64C2.83 26.51 2.4 26.31 1.99 26.07C1.59 25.83 1.21 25.54 0.88 25.21C0.54 24.88 0.25 24.51 0 24.11L0 23.94C0.05 23.85 0.09 23.75 0.13 23.65C0.17 23.55 0.2 23.46 0.23 23.35C0.26 23.25 0.29 23.15 0.31 23.05C0.34 22.95 0.36 22.84 0.37 22.74C0.36 21.82 0.17 20.91 0.17 20C0.17 19.85 0.17 19.7 0.19 19.55C0.22 19.4 0.25 19.25 0.29 19.11C0.34 18.96 0.4 18.83 0.47 18.69C0.54 18.56 0.62 18.43 0.71 18.31C0.82 18.18 0.92 18.05 1.01 17.9C1.09 17.75 1.16 17.6 1.21 17.43C1.26 17.27 1.29 17.11 1.3 16.94C1.32 16.77 1.31 16.6 1.29 16.43C1.28 16.29 1.28 16.15 1.27 16.02C1.27 15.88 1.27 15.74 1.27 15.6C1.27 15.46 1.27 15.32 1.27 15.18C1.28 15.05 1.28 14.91 1.29 14.77C1.49 13.24 1.7 11.71 2 10.19C2.04 10.02 2.11 9.85 2.2 9.7C2.3 9.55 2.41 9.42 2.55 9.31C2.69 9.2 2.85 9.12 3.01 9.06C3.18 9 3.35 8.97 3.53 8.97C4.59 8.87 5.59 8.69 6.59 8.61C7.14 8.58 7.69 8.51 8.24 8.42C8.78 8.32 9.32 8.2 9.86 8.04C10.39 7.89 10.91 7.71 11.42 7.5C11.93 7.28 12.43 7.05 12.92 6.78C14.27 6.04 15.71 5.44 17.11 4.78C18 4.32 18.91 3.89 19.84 3.51C20.77 3.13 21.71 2.79 22.67 2.49C23.63 2.19 24.6 1.93 25.58 1.71C26.56 1.5 27.55 1.33 28.55 1.2C30.32 1.04 32.08 0.83 33.84 0.64L48.33 0.64C49.68 0.75 51.03 0.85 52.38 0.98C52.98 1 53.57 1.04 54.16 1.12C54.75 1.19 55.34 1.29 55.92 1.42C56.5 1.55 57.08 1.71 57.65 1.89C58.21 2.08 58.77 2.28 59.32 2.52C64.11 4.98 68.85 7.5 73.62 9.98C73.72 10.04 73.83 10.09 73.93 10.14C74.04 10.18 74.15 10.23 74.26 10.26C74.37 10.3 74.48 10.33 74.6 10.36C74.71 10.39 74.82 10.41 74.94 10.43C78.38 10.85 81.84 11.18 85.27 11.66C86.13 11.76 86.99 11.88 87.84 12.03C88.69 12.17 89.54 12.35 90.39 12.54C91.23 12.74 92.07 12.96 92.9 13.2C93.73 13.44 94.55 13.71 95.37 14C95.54 14.05 95.7 14.11 95.86 14.18C96.02 14.26 96.17 14.34 96.32 14.43C96.47 14.52 96.61 14.63 96.74 14.74C96.88 14.85 97 14.97 97.12 15.1C97.3 15.38 97.47 15.66 97.63 15.95C97.8 16.23 97.96 16.52 98.12 16.81C98.27 17.1 98.43 17.4 98.57 17.69C98.72 17.99 98.86 18.29 99 18.59C99.02 18.66 99.04 18.74 99.07 18.81C99.1 18.88 99.13 18.95 99.16 19.02C99.19 19.08 99.23 19.15 99.27 19.22C99.31 19.28 99.35 19.35 99.39 19.41C99.52 19.53 99.64 19.68 99.74 19.83ZM1.86 15.94L5.09 15.94C5.68 12.15 5.01 10.54 3.09 9.65C2.07 10.43 1.47 13.48 1.86 15.94ZM64.61 8.06C59.2 3.36 52.89 1.93 45.97 2.16C46.77 4.43 47.6 6.63 48.31 8.87C48.37 9.13 48.47 9.38 48.62 9.61C48.76 9.84 48.95 10.04 49.16 10.2C49.38 10.36 49.62 10.48 49.87 10.56C50.13 10.64 50.4 10.67 50.67 10.66C54.72 10.79 58.72 10.97 62.72 11.13C62.74 11.13 62.76 11.12 62.78 11.12C62.8 11.12 62.81 11.11 62.83 11.1C62.85 11.1 62.87 11.09 62.89 11.08C62.91 11.08 62.92 11.07 62.94 11.06C61.97 9.36 62.61 8.19 64.61 8.06ZM54.34 12.89C54.3 12.78 54.23 12.68 54.15 12.6C54.07 12.52 53.97 12.45 53.86 12.41C53.75 12.36 53.64 12.34 53.52 12.34L50.66 12.34C50.42 12.34 50.2 12.43 50.03 12.6C49.86 12.77 49.77 12.99 49.77 13.23C49.77 13.47 49.86 13.69 50.03 13.86C50.2 14.03 50.42 14.12 50.66 14.12L53.52 14.12C53.64 14.12 53.75 14.1 53.86 14.05C53.97 14.01 54.07 13.94 54.15 13.86C54.23 13.78 54.3 13.68 54.34 13.57C54.39 13.46 54.41 13.35 54.41 13.23C54.41 13.11 54.39 13 54.34 12.89ZM30.34 3.47C30.56 5.42 30.81 7.42 31.02 9.42C31.08 10 31.43 10 31.83 10C35.63 10.13 39.42 10.27 43.22 10.39C44.3 10.42 44.63 9.96 44.45 8.96C44.08 6.86 43.68 4.76 43.34 2.66C43.34 2.56 43.32 2.46 43.28 2.37C43.23 2.28 43.17 2.19 43.09 2.13C43.01 2.07 42.92 2.02 42.82 2C42.72 1.98 42.62 1.98 42.52 2C40.67 2.09 38.8 2 36.95 2.16C34.75 2.32 32.56 2.61 30.34 2.85C30.34 3.19 30.32 3.35 30.34 3.47ZM35.36 12.83C35.32 12.72 35.25 12.62 35.17 12.54C35.09 12.46 34.99 12.39 34.88 12.35C34.77 12.3 34.66 12.28 34.54 12.28L31.68 12.28C31.44 12.28 31.22 12.37 31.05 12.54C30.88 12.71 30.79 12.93 30.79 13.17C30.79 13.41 30.88 13.63 31.05 13.8C31.22 13.97 31.44 14.06 31.68 14.06L34.54 14.06C34.66 14.06 34.77 14.04 34.88 13.99C34.99 13.95 35.09 13.88 35.17 13.8C35.25 13.72 35.32 13.62 35.36 13.51C35.41 13.4 35.43 13.29 35.43 13.17C35.43 13.05 35.41 12.94 35.36 12.83ZM24.46 9.75C26.26 9.84 28.06 9.89 29.83 9.96C29.88 9.96 29.94 9.96 29.99 9.95C30.05 9.95 30.1 9.94 30.16 9.94C30.21 9.93 30.26 9.93 30.32 9.92C30.37 9.92 30.43 9.91 30.48 9.9L29.65 3.07C28.43 3.5 27.31 3.81 26.25 4.28C26 4.4 25.75 4.51 25.5 4.64C25.26 4.76 25.01 4.89 24.77 5.02C24.53 5.15 24.29 5.29 24.05 5.43C23.81 5.57 23.57 5.71 23.34 5.86C23.15 5.94 22.97 6.05 22.82 6.19C22.66 6.32 22.53 6.48 22.43 6.67C22.33 6.85 22.26 7.04 22.23 7.25C22.2 7.45 22.2 7.66 22.23 7.86C22.26 8.12 22.35 8.38 22.47 8.61C22.6 8.85 22.77 9.05 22.97 9.23C23.17 9.4 23.4 9.53 23.65 9.62C23.9 9.71 24.16 9.76 24.43 9.75L24.46 9.75ZM97.82 18.63C97.41 17.21 96.01 15.63 95.26 15.63C92.34 15.72 91.61 16.23 91.09 18.63L97.82 18.63Z" />
	<path id="Layer" class="shp0" d="M20.11 35.39C16.5 35.39 13.58 32.47 13.58 28.86C13.58 25.25 16.5 22.33 20.11 22.33C23.72 22.33 26.64 25.25 26.64 28.86C26.64 32.47 23.72 35.39 20.11 35.39Z" />
	<path id="Layer" class="shp0" d="M78.11 35.39C74.5 35.39 71.58 32.47 71.58 28.86C71.58 25.25 74.5 22.33 78.11 22.33C81.72 22.33 84.64 25.25 84.64 28.86C84.64 32.47 81.72 35.39 78.11 35.39Z" />
	<path id="Layer" class="shp0" d="M35.1 13.17C35.1 13.1 35.08 13.03 35.06 12.96C35.03 12.89 34.99 12.83 34.94 12.78C34.89 12.73 34.83 12.69 34.76 12.66C34.69 12.64 34.62 12.62 34.55 12.62L31.68 12.62C31.53 12.63 31.39 12.68 31.29 12.79C31.19 12.89 31.13 13.03 31.13 13.18C31.13 13.32 31.19 13.46 31.29 13.56C31.39 13.67 31.53 13.73 31.68 13.73L34.54 13.73C34.61 13.73 34.69 13.72 34.75 13.69C34.82 13.66 34.88 13.62 34.94 13.57C34.99 13.51 35.03 13.45 35.06 13.38C35.09 13.32 35.1 13.24 35.1 13.17Z" />
	<path id="Layer" class="shp0" d="M54.08 13.23C54.08 13.16 54.06 13.09 54.04 13.02C54.01 12.95 53.97 12.89 53.92 12.84C53.87 12.79 53.81 12.75 53.74 12.72C53.67 12.7 53.6 12.68 53.53 12.68L50.66 12.68C50.51 12.69 50.37 12.74 50.27 12.85C50.17 12.95 50.11 13.09 50.11 13.23C50.11 13.38 50.17 13.52 50.27 13.62C50.37 13.73 50.51 13.78 50.66 13.78L53.52 13.79C53.59 13.79 53.67 13.78 53.73 13.75C53.8 13.72 53.86 13.68 53.92 13.63C53.97 13.57 54.01 13.51 54.04 13.44C54.07 13.38 54.08 13.3 54.08 13.23Z" />
</svg>