<svg height='300px' width='300px'  fill="#000000" xmlns="http://www.w3.org/2000/svg" xmlns:xlink="http://www.w3.org/1999/xlink" xml:space="preserve" version="1.1" style="shape-rendering:geometricPrecision;text-rendering:geometricPrecision;image-rendering:optimizeQuality;" viewBox="0 0 299 132" x="0px" y="0px" fill-rule="evenodd" clip-rule="evenodd"><g><path class="fil0" d="M226 45l41 0c18,0 32,14 32,31l0 22c0,8 -8,9 -14,9 2,-22 -15,-41 -37,-41 -22,0 -40,19 -38,41l-96 0c2,-22 -15,-41 -37,-41 -22,0 -40,19 -38,41 -7,0 -21,2 -21,-9l0 -19 -14 0c-2,0 -4,-2 -4,-4l0 -43c0,-3 2,-5 4,-5l20 0 0 6 13 -28c1,-2 3,-5 5,-5l148 0c3,0 5,3 7,5l29 40zm-149 30c16,0 28,13 28,29 0,16 -12,28 -28,28 -16,0 -29,-12 -29,-28 0,-16 13,-29 29,-29zm171 0c16,0 28,13 28,29 0,16 -12,28 -28,28 -16,0 -29,-12 -29,-28 0,-16 13,-29 29,-29zm-143 -68l-10 37 54 0 0 -37 -44 0zm-16 37l10 -37 -55 0c-2,7 -8,28 -10,37l55 0zm65 -37l0 37 63 0c-8,-10 -20,-27 -28,-37l-35 0z"></path></g></svg>